PathFileType	4	(X/Y/Z)	C:\Git\research_data\torsion_deformities_healthy_kinematics\simulations\TD07\pre\static_01\markers_HJC.trc
DataRate	CameraRate	NumFrames	NumMarkers	Units	OrigDataRate	OrigDataStartFrame	OrigNumFrames
200	200	9	40	mm	200	76	120
Frame#	Time	C7			T10			CLAV			STRN			RBAK			LASI			RASI			SACR			RT1			RT2			RT3			RKNE			RS1			RS2			RS3			RANK			RHEE			RTOE			RM5D			LT1			LT2			LT3			LKNE			LS1			LS2			LS3			LANK			LHEE			LTOE			LM5D			RHJC			LHJC			LKNM			LANM			RKNM			RANM			LKJC			LAJC			RKJC			RAJC		
		X1	Y1	Z1	X2	Y2	Z2	X3	Y3	Z3	X4	Y4	Z4	X5	Y5	Z5	X6	Y6	Z6	X7	Y7	Z7	X8	Y8	Z8	X9	Y9	Z9	X10	Y10	Z10	X11	Y11	Z11	X12	Y12	Z12	X13	Y13	Z13	X14	Y14	Z14	X15	Y15	Z15	X16	Y16	Z16	X17	Y17	Z17	X18	Y18	Z18	X19	Y19	Z19	X20	Y20	Z20	X21	Y21	Z21	X22	Y22	Z22	X23	Y23	Z23	X24	Y24	Z24	X25	Y25	Z25	X26	Y26	Z26	X27	Y27	Z27	X28	Y28	Z28	X29	Y29	Z29	X30	Y30	Z30	X31	Y31	Z31	X32	Y32	Z32	X33	Y33	Z33	X34	Y34	Z34	X35	Y35	Z35	X36	Y36	Z36	X37	Y37	Z37	X38	Y38	Z38	X39	Y39	Z39	X40	Y40	Z40	

76	0.375000	653.781860	1228.473267	348.034332	663.399048	1004.912170	344.866913	668.032349	1200.461426	221.381622	668.608459	1068.266846	153.057480	756.484985	1096.128296	359.129730	546.645203	797.424377	208.099319	802.475220	833.141541	198.472626	673.032166	853.874756	357.137024	864.751099	607.453491	309.440918	862.143860	547.087769	337.762360	875.303040	545.775940	288.340637	881.365356	442.428253	299.369873	915.705200	350.477936	351.660767	922.214478	287.522980	376.718964	937.763123	293.161163	326.603210	962.250244	87.374992	321.937103	922.981384	45.920422	358.847229	978.875793	47.583015	167.492813	1003.158203	34.431057	257.678864	481.979767	615.699707	255.858780	472.733459	559.568481	291.303558	481.566406	551.254028	240.734909	452.651306	421.963043	304.993958	400.749329	310.169769	318.948303	386.083099	255.474548	353.508820	381.245667	248.748444	302.883636	348.937775	71.218201	335.035767	387.220581	43.314884	357.613770	297.855621	42.679676	178.696884	286.254852	29.743946	273.347168	778.974200	754.952671	267.761584	595.676663	729.361976	274.658934	542.017273	383.287628	261.668427	407.317932	67.513245	271.861908	792.499512	404.759277	268.179230	888.339111	74.983383	278.376740	497.334290	402.625336	283.331192	378.127853	69.365723	303.448837	836.932434	423.593765	283.774551	925.294678	81.179188	300.156921	
77	0.380000	653.779785	1228.491089	348.006866	663.427673	1004.916077	344.850220	668.008545	1200.469360	221.346970	668.555176	1068.280273	153.014893	756.492126	1096.128784	359.075897	546.622742	797.434692	208.107315	802.450073	833.139160	198.406891	673.055969	853.874451	357.106812	864.736633	607.461426	309.383484	862.125977	547.096130	337.734283	875.294617	545.778015	288.287781	881.358337	442.433289	299.336578	915.702393	350.484528	351.628998	922.212952	287.539581	376.693451	937.760559	293.165955	326.581024	962.245972	87.377548	321.935669	922.980530	45.920517	358.846222	978.873718	47.579826	167.493408	1003.162231	34.431660	257.670258	481.965637	615.705811	255.864731	472.725739	559.572327	291.306458	481.534973	551.267212	240.732620	452.646118	421.965057	304.986145	400.746857	310.170715	318.942902	386.084076	255.475861	353.503113	381.244049	248.748581	302.879639	348.944397	71.218903	335.033997	387.222961	43.316792	357.612793	297.854218	42.679211	178.696259	286.256134	29.744843	273.346588	778.965601	754.950108	267.700006	595.669895	729.368495	274.650187	542.009888	383.291229	261.655701	407.319763	67.512337	271.859131	792.490723	404.757568	268.160400	888.335388	74.981758	278.376556	497.328003	402.628143	283.320923	378.132080	69.365620	303.446564	836.924530	423.595428	283.748489	925.290680	81.179653	300.156113	
78	0.385000	653.778320	1228.508301	347.979431	663.456421	1004.919861	344.833008	667.984924	1200.477295	221.312531	668.501099	1068.293823	152.972015	756.499146	1096.128296	359.021393	546.599915	797.445007	208.114136	802.424500	833.136719	198.338867	673.080139	853.873962	357.074860	864.722229	607.469543	309.324127	862.109314	547.104553	337.703247	875.286011	545.780029	288.233154	881.351318	442.438324	299.301910	915.699280	350.491333	351.595734	922.211182	287.556763	376.667175	937.757996	293.170715	326.558044	962.241577	87.380127	321.934174	922.979614	45.920616	358.845154	978.871582	47.576527	167.494003	1003.166382	34.432262	257.661346	481.951477	615.711853	255.869629	472.718079	559.576233	291.308350	481.502991	551.280518	240.729126	452.640991	421.967102	304.977600	400.744476	310.171722	318.937012	386.085083	255.477127	353.497101	381.242493	248.748703	302.875305	348.951141	71.219658	335.032104	387.225372	43.318798	357.611847	297.852783	42.678757	178.695602	286.257446	29.745792	273.345978	778.956865	754.947421	267.636155	595.663035	729.374935	274.639963	542.002502	383.294739	261.642059	407.321655	67.511360	271.856293	792.481934	404.755829	268.140472	888.331543	74.980064	278.376251	497.321747	402.630920	283.309830	378.136398	69.365509	303.444199	836.916626	423.597076	283.721191	925.286560	81.180096	300.155212	
79	0.390000	653.777588	1228.525024	347.952026	663.485168	1004.923523	344.815308	667.961487	1200.484985	221.278336	668.446228	1068.307373	152.928833	756.506042	1096.126587	358.966156	546.576721	797.455261	208.119797	802.398499	833.134399	198.268570	673.104797	853.873352	357.041229	864.707764	607.477661	309.262787	862.093811	547.113037	337.669189	875.277283	545.782043	288.176697	881.344299	442.443359	299.265839	915.695984	350.498383	351.561005	922.209167	287.574493	376.640076	937.755432	293.175446	326.534271	962.237000	87.382736	321.932709	922.978638	45.920723	358.843994	978.869446	47.573112	167.494583	1003.170715	34.432869	257.652161	481.937225	615.717834	255.873459	472.710541	559.580078	291.309235	481.470428	551.294006	240.724442	452.635956	421.969116	304.968292	400.742188	310.172729	318.930573	386.086151	255.478363	353.490784	381.240997	248.748795	302.870544	348.957947	71.220459	335.030182	387.227753	43.320896	357.610901	297.851349	42.678314	178.694916	286.258759	29.746798	273.345337	778.948064	754.944749	267.570042	595.656154	729.381259	274.628277	541.995178	383.298126	261.627533	407.323578	67.510300	271.853333	792.473083	404.754059	268.119446	888.327515	74.978302	278.375854	497.315567	402.633621	283.297913	378.140762	69.365379	303.441757	836.908691	423.598709	283.692642	925.282257	81.180519	300.154282	
80	0.395000	653.777588	1228.541382	347.924622	663.514038	1004.927063	344.797089	667.938232	1200.492798	221.244400	668.390625	1068.321045	152.885345	756.512878	1096.123901	358.910217	546.553223	797.465454	208.124268	802.372070	833.132080	198.195969	673.129822	853.872498	357.005859	864.693298	607.485962	309.199493	862.079529	547.121582	337.632019	875.268433	545.784058	288.118439	881.337219	442.448456	299.228363	915.692444	350.505646	351.524811	922.206909	287.592804	376.612183	937.752808	293.180115	326.509705	962.232239	87.385361	321.931213	922.977539	45.920837	358.842743	978.867249	47.569584	167.495178	1003.175171	34.433483	257.642639	481.922913	615.723755	255.876236	472.703064	559.583923	291.309082	481.437317	551.307678	240.718536	452.630981	421.971161	304.958221	400.739990	310.173798	318.923645	386.087250	255.479538	353.484192	381.239532	248.748886	302.865448	348.964813	71.221321	335.028168	387.230133	43.323097	357.610016	297.849884	42.677879	178.694183	286.260101	29.747858	273.344635	778.939173	754.941990	267.501609	595.649268	729.387452	274.615069	541.987854	383.301361	261.612122	407.325531	67.509171	271.850281	792.464294	404.752289	268.097290	888.323364	74.976471	278.375336	497.309418	402.636261	283.285172	378.145172	69.365246	303.439224	836.900757	423.600372	283.662827	925.277802	81.180916	300.153275	
81	0.400000	653.778259	1228.557129	347.897247	663.542908	1004.930420	344.778381	667.915100	1200.500366	221.210709	668.334229	1068.334717	152.841568	756.519653	1096.119995	358.853577	546.529358	797.475586	208.127563	802.345215	833.129761	198.121094	673.155273	853.871521	356.968750	864.678894	607.494263	309.134247	862.066589	547.130188	337.591705	875.259399	545.786011	288.058411	881.330139	442.453552	299.189484	915.688599	350.513123	351.487152	922.204407	287.611664	376.583496	937.750183	293.184784	326.484314	962.227234	87.388016	321.929718	922.976440	45.920963	358.841400	978.865112	47.565941	167.495758	1003.179749	34.434097	257.632843	481.908569	615.729614	255.877960	472.695679	559.587769	291.307922	481.403595	551.321411	240.711441	452.626099	421.973175	304.947388	400.737915	310.174896	318.916168	386.088379	255.480698	353.477295	381.238159	248.748947	302.859955	348.971802	71.222237	335.026093	387.232513	43.325394	357.609161	297.848450	42.677452	178.693436	286.261444	29.748974	273.343933	778.930174	754.939173	267.430942	595.642319	729.393543	274.600413	541.980591	383.304504	261.595795	407.327545	67.507973	271.847137	792.455444	404.750458	268.074005	888.319092	74.974571	278.374725	497.303345	402.638840	283.271591	378.149673	69.365105	303.436615	836.892792	423.602005	283.631744	925.273163	81.181293	300.152222	
82	0.405000	653.779663	1228.572510	347.869873	663.571838	1004.933655	344.759186	667.892151	1200.507935	221.177307	668.277100	1068.348511	152.797501	756.526306	1096.115112	358.796204	546.505066	797.485657	208.129684	802.317993	833.127563	198.043930	673.181091	853.870361	356.929962	864.664490	607.502747	309.067078	862.054993	547.138855	337.548218	875.250244	545.787964	287.996552	881.323059	442.458679	299.149231	915.684509	350.520844	351.447998	922.201660	287.631104	376.554016	937.747498	293.189423	326.458160	962.222107	87.390686	321.928192	922.975220	45.921093	358.839966	978.862854	47.562183	167.496338	1003.184448	34.434715	257.622742	481.894135	615.735352	255.878616	472.688354	559.591614	291.305756	481.369324	551.335388	240.703156	452.621307	421.975189	304.935791	400.735931	310.176025	318.908203	386.089569	255.481796	353.470093	381.236816	248.749008	302.854095	348.978851	71.223206	335.023956	387.234894	43.327785	357.608307	297.846985	42.677036	178.692627	286.262817	29.750143	273.343170	778.921149	754.936315	267.357986	595.635309	729.399463	274.584266	541.973328	383.307556	261.578583	407.329620	67.506699	271.843933	792.446655	404.748627	268.049652	888.314636	74.972603	278.373962	497.297318	402.641373	283.257187	378.154236	69.364952	303.433945	836.884857	423.603653	283.599442	925.268372	81.181644	300.151077	
83	0.410000	653.781738	1228.587280	347.842529	663.600830	1004.936768	344.739471	667.869385	1200.515503	221.144211	668.219177	1068.362305	152.753128	756.532837	1096.109009	358.738159	546.480469	797.495728	208.130615	802.290283	833.125366	197.964478	673.207397	853.869019	356.889435	864.650085	607.511230	308.997925	862.044800	547.147583	337.501465	875.240967	545.789917	287.932922	881.315979	442.463806	299.107574	915.680176	350.528778	351.407379	922.198669	287.651123	376.523743	937.744873	293.194000	326.431183	962.216736	87.393379	321.926666	922.973938	45.921230	358.838470	978.860657	47.558311	167.496902	1003.189331	34.435341	257.612335	481.879639	615.741089	255.878220	472.681152	559.595459	291.302551	481.334503	551.349426	240.693649	452.616577	421.977234	304.923431	400.734039	310.177216	318.899750	386.090790	255.482864	353.462585	381.235565	248.749039	302.847870	348.985962	71.224228	335.021729	387.237244	43.330276	357.607513	297.845520	42.676628	178.691803	286.264221	29.751369	273.342377	778.911963	754.933399	267.282722	595.628262	729.405324	274.566600	541.966125	383.310455	261.560486	407.331726	67.505348	271.840607	792.437744	404.746765	268.024139	888.309998	74.970566	278.373138	497.291351	402.643845	283.241959	378.158844	69.364788	303.431168	836.876862	423.605286	283.565857	925.263367	81.181973	300.149902	
84	0.415000	653.784485	1228.601685	347.815216	663.629822	1004.939697	344.719238	667.846741	1200.522827	221.111404	668.160522	1068.376099	152.708466	756.539307	1096.101929	358.679382	546.455566	797.505737	208.130386	802.262146	833.123230	197.882736	673.234070	853.867554	356.847198	864.635681	607.519897	308.926819	862.035950	547.156433	337.451447	875.231567	545.791809	287.867462	881.308838	442.468994	299.064545	915.675598	350.536957	351.365265	922.195435	287.671722	376.492676	937.742126	293.198578	326.403442	962.211182	87.396103	321.925140	922.972534	45.921375	358.836884	978.858398	47.554325	167.497482	1003.194336	34.435966	257.601624	481.865112	615.746765	255.876755	472.674011	559.599304	291.298340	481.299103	551.363708	240.682953	452.611908	421.979248	304.910339	400.732239	310.178406	318.890747	386.092072	255.483887	353.454803	381.234344	248.749054	302.841248	348.993164	71.225304	335.019470	387.239594	43.332867	357.606720	297.844055	42.676228	178.690933	286.265625	29.752649	273.341553	778.902705	754.930486	267.205202	595.621229	729.411100	274.547486	541.958923	383.313263	261.541473	407.333862	67.503929	271.837189	792.428894	404.744904	267.997528	888.305298	74.968460	278.372162	497.285416	402.646255	283.225906	378.163513	69.364616	303.428329	836.868866	423.606949	283.531036	925.258240	81.182281	300.148651	
